<svg width="900" height="892" viewBox="0 0 900 892" fill="none" xmlns="http://www.w3.org/2000/svg">
<path d="M450.102 0.5C512.046 0.530085 571.096 28.0817 624.855 69.459C678.642 110.857 727.094 166.067 767.796 221.297C808.496 276.524 841.434 331.754 864.198 373.179C875.58 393.89 884.418 411.149 890.41 423.229C893.406 429.27 895.689 434.016 897.225 437.251C897.992 438.868 898.573 440.107 898.961 440.942C899.155 441.36 899.301 441.677 899.398 441.889C899.441 441.982 899.475 442.055 899.499 442.107C899.467 504.047 871.419 563.094 829.294 616.852C787.146 670.638 730.937 719.091 674.707 759.793C618.48 800.493 562.25 833.432 520.075 856.196C498.988 867.578 481.416 876.416 469.117 882.408C462.968 885.404 458.136 887.688 454.843 889.224C453.196 889.991 451.933 890.572 451.083 890.96C450.658 891.154 450.336 891.3 450.12 891.397C450.023 891.442 449.946 891.475 449.893 891.499C387.953 891.467 328.906 863.419 275.148 821.294C221.362 779.146 172.909 722.937 132.207 666.707C91.5068 610.48 58.5681 554.25 35.8037 512.075C24.4219 490.988 15.5836 473.416 9.5918 461.117C6.59598 454.968 4.31153 450.136 2.77637 446.843C2.00878 445.196 1.4283 443.933 1.04004 443.083C0.845975 442.658 0.700049 442.336 0.602539 442.12C0.558089 442.022 0.524204 441.945 0.5 441.892C0.53269 379.954 28.5805 321.407 70.7041 268.4C112.851 215.364 169.059 167.912 225.288 128.21C281.514 88.5096 337.744 56.5712 379.919 34.5566C401.006 23.5497 418.578 15.0241 430.877 9.25098C437.026 6.36465 441.857 4.16601 445.15 2.68945C446.797 1.95116 448.06 1.39364 448.91 1.02051C449.335 0.833958 449.657 0.693296 449.873 0.599609C449.972 0.556794 450.048 0.523255 450.102 0.5Z" fill="url(#paint0_linear_204_2)" stroke="black"/>
<defs>
<linearGradient id="paint0_linear_204_2" x1="728" y1="-82.5" x2="280" y2="827.5" gradientUnits="userSpaceOnUse">
<stop stop-color="#00F1F9"/>
<stop offset="1" stop-color="#CB33F4"/>
</linearGradient>
</defs>
</svg>
